<svg xmlns="http://www.w3.org/2000/svg" width="53.531" height="83.493" viewBox="0 0 53.531 83.493"><defs><style>.a{fill:#f56200;}</style></defs><g transform="translate(-23.152 -3.731)"><path class="a" d="M49.607,53.794h-.749v3.147h.749a1.574,1.574,0,1,0,0-3.147Z" transform="translate(-5.674 -11.051)"/><path class="a" d="M73.567,19.061H73.5l-1.682-8.269a3.119,3.119,0,0,0-2.677-2.473L31.739,3.754a3.12,3.12,0,0,0-3.471,2.712l-1.56,12.6h-.439a3.117,3.117,0,0,0,0,6.234h.053L30.474,81.6a6.094,6.094,0,0,0,6.054,5.624h26.78A6.094,6.094,0,0,0,69.362,81.6L73.514,25.3h.053a3.117,3.117,0,0,0,0-6.234ZM44.957,58.037l-1.149-1.4c-.274-.337-.387-.475-.624-.8v1.374a1.449,1.449,0,1,1-2.9,0V51.069a1.449,1.449,0,1,1,2.9,0v1.324c.224-.325.35-.487.624-.837l1-1.274a1.493,1.493,0,1,1,2.248,1.948l-1.6,1.874,1.724,1.948C48.542,57.588,46.343,59.736,44.957,58.037Zm-1.112-9.349H41.909a1.576,1.576,0,0,1-1.624-1.624v-5.5a1.576,1.576,0,0,1,1.624-1.624h1.936a4.378,4.378,0,1,1,0,8.743Zm13.476,8.638a1.339,1.339,0,0,1-1.386,1.361,1.6,1.6,0,0,1-1.361-.724L52.8,55.714c-.263-.337-.563-.787-.8-1.162v2.5c0,.962-.5,1.636-1.449,1.636S49.1,58.013,49.1,57.051V50.956a1.342,1.342,0,0,1,1.4-1.361,1.584,1.584,0,0,1,1.349.724l1.673,2.248a13.492,13.492,0,0,1,.9,1.324V51.218a1.458,1.458,0,1,1,2.9,0ZM57.4,47.5a1.339,1.339,0,0,1-1.386,1.361,1.606,1.606,0,0,1-1.361-.725L52.877,45.89c-.262-.337-.562-.786-.8-1.161v2.5c0,.962-.5,1.636-1.449,1.636s-1.449-.675-1.449-1.636V41.132a1.343,1.343,0,0,1,1.4-1.361,1.584,1.584,0,0,1,1.349.725L53.6,42.743a13.523,13.523,0,0,1,.9,1.323V41.394a1.458,1.458,0,1,1,2.9,0ZM58.413,57.98h-.118v.492a.126.126,0,1,1-.252,0V57.98h-.115a.121.121,0,1,1,0-.241h.486a.12.12,0,1,1,0,.241Zm.975.62a.109.109,0,0,1-.115-.093l-.037-.228-.012-.1-.02.1-.06.216a.127.127,0,0,1-.251,0l-.06-.216-.02-.1-.012.1-.037.228a.109.109,0,0,1-.115.093.11.11,0,0,1-.115-.115.166.166,0,0,1,0-.033l.121-.612a.131.131,0,0,1,.14-.115.134.134,0,0,1,.136.111l.077.3.01.048.01-.048.078-.3a.134.134,0,0,1,.136-.111.132.132,0,0,1,.14.115l.12.612a.165.165,0,0,1,0,.033A.11.11,0,0,1,59.388,58.6ZM60.7,51.983a2.62,2.62,0,0,1-.632,1.292,1.06,1.06,0,0,1-.841.25l-.012,0a1.061,1.061,0,0,1-.746-.461A2.628,2.628,0,0,1,58.2,51.65a3.26,3.26,0,0,1,.177-1.331,1.345,1.345,0,0,1,2.5.334A3.251,3.251,0,0,1,60.7,51.983Z" transform="translate(0 0)"/></g></svg>