<svg xmlns="http://www.w3.org/2000/svg" width="549.655" height="177.641" viewBox="0 0 549.655 177.641"><defs><style>.a{fill:#f36f21;}.b{fill:#ea1d8c;}</style></defs><g transform="translate(-17.895 -20.388)"><g transform="translate(146.199 20.388)"><path class="a" d="M295.255,74V35.17c0-8.518,6.147-14.782,14.552-14.782s14.552,6.264,14.552,14.782V73c0,5.762,4.266,9.771,9.283,9.771s9.283-4.009,9.283-9.771V35.17c0-8.518,6.147-14.782,14.552-14.782s14.553,6.264,14.553,14.782V74c0,21.671-15.3,37.58-38.388,37.58S295.255,95.675,295.255,74Z" transform="translate(-295.255 -20.388)"/><g transform="translate(86.812)"><path class="a" d="M482.92,95.174V34.043c0-8.017,6.147-13.655,14.05-13.655,6.147,0,10.161,2.757,13.549,7.265L527.33,50.2a136.479,136.479,0,0,1,9.032,13.278V36.674c0-9.521,5.018-16.286,14.552-16.286s14.552,6.764,14.552,16.286V97.929c0,8.018-6.147,13.655-13.925,13.655-6.272,0-10.161-2.756-13.674-7.265L520.053,81.77c-2.634-3.382-5.645-7.893-8.029-11.651V95.174c0,9.645-5.018,16.41-14.552,16.41S482.92,104.819,482.92,95.174Z" transform="translate(-482.92 -20.388)"/></g><g transform="translate(179.396)"><path class="a" d="M729.98,105.07,718.439,91.039c-2.76-3.382-3.889-4.76-6.272-8.017V96.8c0,8.644-6.021,14.782-14.552,14.782s-14.552-6.138-14.552-14.782V35.17c0-8.644,6.021-14.782,14.552-14.782s14.552,6.138,14.552,14.782V48.449c2.258-3.257,3.513-4.886,6.272-8.394l10.036-12.777c13.3-16.912,36.882,2.881,22.581,19.541L735,65.61,752.31,85.152C765.984,100.56,743.905,122.106,729.98,105.07Z" transform="translate(-683.062 -20.388)"/></g><g transform="translate(262.067)"><path class="a" d="M861.776,96.8V35.17c0-8.644,6.022-14.782,14.553-14.782S890.88,26.526,890.88,35.17V96.8c0,8.644-6.021,14.782-14.552,14.782S861.776,105.445,861.776,96.8Z" transform="translate(-861.776 -20.388)"/></g><g transform="translate(301.207)"><path class="a" d="M946.386,95.174V34.043c0-8.017,6.147-13.655,14.05-13.655,6.147,0,10.161,2.757,13.548,7.265L990.8,50.2a136.383,136.383,0,0,1,9.033,13.278V36.674c0-9.521,5.018-16.286,14.552-16.286s14.552,6.764,14.552,16.286V97.929c0,8.018-6.147,13.655-13.925,13.655-6.272,0-10.162-2.756-13.674-7.265L983.519,81.77c-2.634-3.382-5.645-7.893-8.029-11.651V95.174c0,9.645-5.018,16.41-14.552,16.41S946.386,104.819,946.386,95.174Z" transform="translate(-946.386 -20.388)"/></g><g transform="translate(392.572 0.043)"><path class="b" d="M1159.42,20.606c5.045.662,10.348,4.172,11.407,10.439.58,3.431-.23,7.9-1.779,13.345-1.488,5.226-3.009,10.038-6.345,12.956a10.657,10.657,0,0,1-8.447,2.509l-.124-.016a10.648,10.648,0,0,1-7.5-4.626c-2.458-3.687-2.665-8.729-2.734-14.162-.072-5.656.317-10.185,1.775-13.346,2.663-5.772,8.7-7.777,13.743-7.1" transform="translate(-1143.893 -20.48)"/></g><g transform="translate(388.727 79.32)"><path class="a" d="M1146.894,197.355a5.659,5.659,0,1,1-5.657-5.5A5.575,5.575,0,0,1,1146.894,197.355Zm-1.664,0a3.993,3.993,0,1,0-3.993,3.988A3.987,3.987,0,0,0,1145.231,197.355Zm-1.921,1.374a1.009,1.009,0,0,1,.242.589.778.778,0,0,1-.817.816.817.817,0,0,1-.666-.347l-1.089-1.465h-.212v.982a.8.8,0,0,1-.817.831.79.79,0,0,1-.817-.831v-3.9a.8.8,0,0,1,.832-.831h1.633a1.893,1.893,0,0,1,1.15,3.383Zm-2.541-1.737h.469a.547.547,0,1,0,0-1.088h-.469Z" transform="translate(-1135.58 -191.857)"/></g></g><g transform="translate(56.627 22.142)"><path class="a" d="M101.624,95.582V40.465c0-9.4,6.9-16.286,16.309-16.286h19.445c25.718,0,46.291,16.912,46.291,43.844s-20.574,43.844-46.291,43.844H117.933C108.524,111.867,101.624,104.977,101.624,95.582Zm36.631-11.774c9.409,0,16.309-6.014,16.309-15.784s-6.9-15.784-16.309-15.784h-7.527V83.807Z" transform="translate(-101.624 -24.179)"/></g><g transform="translate(17.895 121.363)"><path class="b" d="M341.669,262.919a10.532,10.532,0,1,0,0-21.062H309.714c-7.278,0-12.339,5.16-12.339,12.427v48.864c0,7.267,5.061,12.427,12.339,12.427h31.955a10.532,10.532,0,1,0,0-21.062H321.842v-7.793h13.921a9.057,9.057,0,1,0,0-18.113H321.842v-5.687Z" transform="translate(-168.09 -240.382)"/><path class="b" d="M476.229,290.271H457.035V251.1c0-7.267-5.063-12.427-12.235-12.427s-12.233,5.16-12.233,12.427v50.338c0,7.267,5.061,12.427,12.233,12.427h31.428c7.172,0,12.446-4.95,12.446-11.794S483.4,290.271,476.229,290.271Z" transform="translate(-240.744 -238.669)"/><path class="b" d="M580.221,238.669c-7.172,0-12.234,5.16-12.234,12.427v51.812c0,7.266,5.063,12.427,12.234,12.427s12.233-5.161,12.233-12.427V251.1C592.454,243.829,587.392,238.669,580.221,238.669Z" transform="translate(-313.52 -238.669)"/><path class="b" d="M694.532,238.669c-5.167,0-9.281,2.528-11.812,8.846l-5.167,13.058-6.645,18.008-6.643-18.008L659.1,247.515c-2.531-6.318-6.645-8.846-11.812-8.846-7.8,0-13.183,5.055-13.183,12.111a15.822,15.822,0,0,0,1.371,6.214l20.987,46.757c3.165,7.056,6.434,11.585,14.449,11.585s11.285-4.529,14.449-11.585l20.988-46.757a15.82,15.82,0,0,0,1.37-6.214C707.714,243.724,702.335,238.669,694.532,238.669Z" transform="translate(-349.05 -238.669)"/><path class="b" d="M850.75,262.919a10.532,10.532,0,1,0,0-21.062H818.8c-7.278,0-12.339,5.16-12.339,12.427v48.864c0,7.267,5.061,12.427,12.339,12.427H850.75a10.532,10.532,0,1,0,0-21.062H830.923v-7.793h13.921a9.057,9.057,0,1,0,0-18.113H830.923v-5.687Z" transform="translate(-441.675 -240.382)"/><path class="b" d="M991.743,288.3c6.328-4.528,10.019-11.794,10.019-20.64,0-15.165-10.969-25.8-27.421-25.8h-20.46c-7.172,0-12.233,5.16-12.233,12.427v50.338c0,7.266,5.061,12.427,12.233,12.427s12.234-5.161,12.234-12.427V293.459l14.131,17.9a13.181,13.181,0,0,0,10.336,5.582,12.054,12.054,0,0,0,12.128-12.111,13.007,13.007,0,0,0-3.585-8.741ZM970.65,275.029h-4.534V260.286h4.534c4.429,0,7.91,2.739,7.91,7.372S975.079,275.029,970.65,275.029Z" transform="translate(-514.328 -240.382)"/><path class="b" d="M1121.577,268.472l-7.594-2.949c-4.112-1.58-5.589-2.528-5.589-4.423,0-1.686,1.478-2.844,3.48-2.844,2.638,0,4.325,1.158,6.328,3.686,2.849,3.581,6.223,5.161,9.387,5.161a11.648,11.648,0,0,0,11.6-11.69,12.182,12.182,0,0,0-3.27-8.109c-5.8-6.529-13.71-8.636-23.1-8.636-16.557,0-28.052,9.163-28.052,23.168,0,10,5.379,16.744,15.293,20.852l10.546,4.317c3.058,1.264,4.745,2.528,4.745,4.529,0,1.79-1.16,3.159-3.8,3.159a9.21,9.21,0,0,1-7.277-4.212c-2.849-4-6.538-5.687-10.125-5.687a11.376,11.376,0,0,0-11.39,11.268,15.18,15.18,0,0,0,4.007,9.793c5.7,6.951,15.609,9.479,24.469,9.479,18.138,0,28.579-10.953,28.579-24.011C1139.821,279.319,1134.127,273.316,1121.577,268.472Z" transform="translate(-590.167 -238.669)"/><g transform="translate(0 1.47)"><path class="b" d="M47.562,320.873H21.753a4.1,4.1,0,0,1,0-8.191H47.562a4.1,4.1,0,0,1,0,8.191Z" transform="translate(-17.895 -279.914)"/><path class="b" d="M72.166,391.7H64.641a4.1,4.1,0,0,1,0-8.191h7.524a4.1,4.1,0,0,1,0,8.191Z" transform="translate(-40.943 -317.976)"/><path class="b" d="M111.682,241.852h-.223c-.014,0-.028,0-.043,0H71.183a4.1,4.1,0,0,0,0,8.192h11.59a4.1,4.1,0,0,1,0,8.191H48.281a4.1,4.1,0,0,0,0,8.191H87.74a4.1,4.1,0,0,1,0,8.192H73.112a4.1,4.1,0,0,0,0,8.191h8.513v.062a4.12,4.12,0,0,1,0,8.069v.061H44.2a4.1,4.1,0,0,0,0,8.191H90.312a4.1,4.1,0,0,1,0,8.192H75.11a4.1,4.1,0,0,0,0,8.191h36.571c21.62,0,38.916-14.217,38.916-36.858S133.3,241.852,111.682,241.852Zm.738,50.128h-6.327V265.441h6.327c7.91,0,13.711,5.055,13.711,13.269S120.329,291.979,112.419,291.979Z" transform="translate(-29.96 -241.847)"/></g></g></g></svg>