<svg xmlns="http://www.w3.org/2000/svg" width="85.493" height="85.494" viewBox="0 0 85.493 85.494"><defs><style>.a{fill:#f56200;}</style></defs><path class="a" d="M46.247,3.3A42.747,42.747,0,1,0,88.993,46.051,42.747,42.747,0,0,0,46.247,3.3ZM62.138,18.01a2.175,2.175,0,0,1,2.923-.966l5.711,2.874a2.177,2.177,0,1,1-1.958,3.889L63.1,20.934A2.177,2.177,0,0,1,62.138,18.01Zm.6,9.8a2.178,2.178,0,0,1,1.995,2.345l-.663,8.21a2.178,2.178,0,0,1-2.168,2c-.059,0-.118,0-.177-.006a2.178,2.178,0,0,1-1.995-2.346l.663-8.209A2.176,2.176,0,0,1,62.736,27.813Zm2.207,17.946,5.44-3.361a2.177,2.177,0,0,1,2.288,3.7l-5.439,3.361a2.177,2.177,0,1,1-2.289-3.7ZM50.327,16.91l5.89-4.917a2.176,2.176,0,1,1,2.79,3.341l-5.89,4.917a2.176,2.176,0,1,1-2.79-3.341ZM35.481,46.051A10.766,10.766,0,1,1,46.247,56.817,10.778,10.778,0,0,1,35.481,46.051Zm3.058,19.336a2.177,2.177,0,0,1-3.064.3l-4.94-4.057A2.177,2.177,0,1,1,33.3,58.266l4.94,4.057A2.176,2.176,0,0,1,38.539,65.387Zm6.53-46.653,1.7,7.543a2.177,2.177,0,1,1-4.248.956l-1.7-7.543a2.177,2.177,0,1,1,4.248-.956ZM33.6,14.74l4.931-4.074A2.177,2.177,0,0,1,41.3,14.023L36.373,18.1A2.177,2.177,0,0,1,33.6,14.74ZM32.114,28.866a2.177,2.177,0,0,1,1.174,2.846l-2.869,6.9a2.177,2.177,0,0,1-4.02-1.672l2.869-6.9A2.177,2.177,0,0,1,32.114,28.866Zm-10.79-4.6,2.855-7.329a2.177,2.177,0,1,1,4.057,1.58l-2.855,7.329a2.177,2.177,0,1,1-4.057-1.58Zm3.333,26.522L18.51,52.55a2.177,2.177,0,1,1-1.2-4.184L23.456,46.6a2.177,2.177,0,1,1,1.2,4.184ZM11.238,36.6A2.18,2.18,0,0,1,13.9,35.055l6.175,1.652a2.177,2.177,0,0,1-.56,4.281,2.2,2.2,0,0,1-.564-.074l-6.175-1.652A2.177,2.177,0,0,1,11.238,36.6Zm9.291,22.853-1.183,6.285a2.179,2.179,0,0,1-2.137,1.775,2.214,2.214,0,0,1-.405-.038,2.178,2.178,0,0,1-1.737-2.543l1.183-6.284a2.177,2.177,0,1,1,4.279.805Zm9.209,17.824a2.175,2.175,0,0,1-2.794-1.293l-2.2-6a2.177,2.177,0,1,1,4.087-1.5l2.2,6A2.177,2.177,0,0,1,29.738,77.272Zm13.92,1.134-4.943,4.056A2.177,2.177,0,0,1,35.953,79.1L40.9,75.041a2.177,2.177,0,1,1,2.762,3.366Zm6.01-6.9a2.177,2.177,0,1,1-3.777-2.166L49.072,63.8a2.177,2.177,0,1,1,3.777,2.166Zm12.021,7.767a2.176,2.176,0,0,1-3.064.3l-4.944-4.057a2.177,2.177,0,0,1,2.762-3.366l4.944,4.057A2.176,2.176,0,0,1,61.688,79.278Zm.652-24.066a2.177,2.177,0,0,1,3.065-.284l4.92,4.085a2.177,2.177,0,0,1-2.782,3.35l-4.92-4.085A2.177,2.177,0,0,1,62.34,55.212ZM74.563,69.254,69.62,73.31a2.177,2.177,0,1,1-2.762-3.366L71.8,65.888a2.177,2.177,0,0,1,2.762,3.366ZM75.97,30.365l-3.576,5.3a2.177,2.177,0,1,1-3.609-2.435l3.576-5.3a2.177,2.177,0,1,1,3.609,2.435Zm4.287,24.816c-.07,0-.139,0-.209-.01A2.177,2.177,0,0,1,78.087,52.8l.818-8.6a2.177,2.177,0,0,1,4.334.412l-.818,8.6A2.177,2.177,0,0,1,80.257,55.181Z" transform="translate(-3.5 -3.304)"/></svg>