<svg xmlns="http://www.w3.org/2000/svg" width="69.684" height="80.425" viewBox="0 0 69.684 80.425"><defs><style>.a{fill:#f56200;}</style></defs><g transform="translate(-957.308 -365.389)"><path class="a" d="M38.112,51.032v8.962L47.3,57.849Zm3.7-29.283a4.93,4.93,0,0,0-3.633-.93,4.684,4.684,0,0,0-3.171,1.832L27.161,33.213a4.652,4.652,0,0,1-7.468-5.548L28.045,16.6a13.427,13.427,0,0,1,4.08-3.76,14.42,14.42,0,0,1,10.593-1.526,14.01,14.01,0,0,1,5.124,2.407L61.985,24.141a3.625,3.625,0,0,0,2.56.641,3.089,3.089,0,0,0,2.1-1.247l9.024-12.147A4.756,4.756,0,0,1,83.3,17.06L73.991,29.64a13.088,13.088,0,0,1-3.66,3.384,12.142,12.142,0,0,1-4.571,1.652,11.967,11.967,0,0,1-1.725.126,12.494,12.494,0,0,1-7.443-2.456l-.877-.65-9.68,13.014L59.763,54.9a5.976,5.976,0,0,1-2.209,10.616L30.926,71.733,23.4,81.944a4.9,4.9,0,0,1-7.889-5.812l12.8-17.37V43.693c0-3.886.931-5.018,3.845-8.964Zm11.14-11.086a7.15,7.15,0,1,1,7.15,7.15,7.15,7.15,0,0,1-7.15-7.15" transform="translate(942.75 361.876)"/></g></svg>